# xmcd
#
# Track frame offsets:
#	150
#	5341
#	54157
#	65734
#	98414
#	185470
#	247894
#
# Disc length: 3680 seconds
#
# Revision: 1
# Processed by: cddbd v1.5.2PL0 Copyright (c) Steve Scherf et al.
# Submitted via: audiograbber 1.83.01
#
DISCID=4b0e5e07
DTITLE=Grateful Dead - 73-09-07A Nassau Veterans Memorial Coliseum, Uniondale N
DTITLE=Y
DYEAR=1900
DGENRE=
TTITLE0=Crowd and Tuning
TTITLE1=Truckin'
TTITLE2=Drums
TTITLE3=The Other One
TTITLE4=Eyes Of The World
TTITLE5=Sugar Magnolia
TTITLE6=Around and Around
EXTD=
EXTT0=
EXTT1=
EXTT2=
EXTT3=
EXTT4=
EXTT5=
EXTT6=
PLAYORDER=
